<svg width="23" height="24" viewBox="0 0 23 24" fill="none" xmlns="http://www.w3.org/2000/svg">
<path d="M22.2886 19.5729L16.8401 14.9396C16.2765 14.4321 15.6742 14.2006 15.1883 14.2222C16.4749 12.7156 17.2512 10.7619 17.2512 8.62561C17.2512 3.8614 13.3898 0 8.62561 0C3.8614 0 0 3.8614 0 8.62561C0 13.3898 3.8614 17.2512 8.62561 17.2512C10.7619 17.2512 12.7156 16.4749 14.2222 15.1883C14.1992 15.6742 14.4321 16.2765 14.9396 16.8401L19.5729 22.2886C20.3665 23.1698 21.6618 23.2446 22.4525 22.4539C23.2431 21.6632 23.1684 20.3665 22.2871 19.5744L22.2886 19.5729ZM8.62561 14.3746C5.44995 14.3746 2.8752 11.7998 2.8752 8.62417C2.8752 5.44851 5.44995 2.87376 8.62561 2.87376C11.8013 2.87376 14.376 5.44851 14.376 8.62417C14.376 11.7998 11.8013 14.3746 8.62561 14.3746Z" fill="black" fill-opacity="0.5"/>
</svg>
